<mxfile host="65bd71144e">
    <diagram id="f1oL-Dg3GfGqxymau8xR" name="Página-1">
        <mxGraphModel dx="1189" dy="679" grid="0" gridSize="10" guides="1" tooltips="1" connect="1" arrows="1" fold="1" page="1" pageScale="1" pageWidth="1169" pageHeight="827" background="#ffffff" math="0" shadow="0">
            <root>
                <mxCell id="0"/>
                <mxCell id="1" parent="0"/>
                <mxCell id="9" style="edgeStyle=none;hachureGap=4;html=1;exitX=0.5;exitY=0.5;exitDx=0;exitDy=0;exitPerimeter=0;fontFamily=Architects Daughter;fontSource=https%3A%2F%2Ffonts.googleapis.com%2Fcss%3Ffamily%3DArchitects%2BDaughter;fontSize=16;strokeColor=#000000;strokeWidth=2;" edge="1" parent="1" source="8" target="10">
                    <mxGeometry relative="1" as="geometry">
                        <mxPoint x="294" y="304" as="targetPoint"/>
                    </mxGeometry>
                </mxCell>
                <mxCell id="8" value="Actor" style="shape=umlActor;verticalLabelPosition=bottom;verticalAlign=top;html=1;outlineConnect=0;hachureGap=4;strokeColor=#0e0c0c;fontFamily=Architects Daughter;fontSource=https%3A%2F%2Ffonts.googleapis.com%2Fcss%3Ffamily%3DArchitects%2BDaughter;fontSize=20;gradientColor=none;fillColor=default;shadow=0;" vertex="1" parent="1">
                    <mxGeometry x="60" y="264" width="50" height="100" as="geometry"/>
                </mxCell>
                <mxCell id="15" style="edgeStyle=none;sketch=0;hachureGap=4;jiggle=2;curveFitting=1;html=1;exitX=1;exitY=0.5;exitDx=0;exitDy=0;entryX=0;entryY=0.5;entryDx=0;entryDy=0;strokeColor=#000000;strokeWidth=2;fontFamily=Times New Roman;fontSize=16;" edge="1" parent="1" source="10" target="14">
                    <mxGeometry relative="1" as="geometry"/>
                </mxCell>
                <mxCell id="28" style="edgeStyle=none;sketch=0;hachureGap=4;jiggle=2;curveFitting=1;html=1;exitX=0.5;exitY=1;exitDx=0;exitDy=0;strokeColor=#000000;strokeWidth=2;fontFamily=Times New Roman;fontSize=12;entryX=0;entryY=0.5;entryDx=0;entryDy=0;" edge="1" parent="1" source="10" target="30">
                    <mxGeometry relative="1" as="geometry">
                        <mxPoint x="229.57142857142867" y="762.4285714285716" as="targetPoint"/>
                        <Array as="points">
                            <mxPoint x="262" y="698"/>
                        </Array>
                    </mxGeometry>
                </mxCell>
                <mxCell id="42" style="edgeStyle=none;sketch=0;hachureGap=4;jiggle=2;curveFitting=1;html=1;exitX=0;exitY=1;exitDx=0;exitDy=0;entryX=0;entryY=0.5;entryDx=0;entryDy=0;strokeColor=#000000;strokeWidth=2;fontFamily=Times New Roman;fontSize=12;" edge="1" parent="1" source="10" target="31">
                    <mxGeometry relative="1" as="geometry">
                        <Array as="points">
                            <mxPoint x="202" y="1023"/>
                        </Array>
                    </mxGeometry>
                </mxCell>
                <mxCell id="10" value="&lt;font style=&quot;font-size: 12px;&quot; face=&quot;Times New Roman&quot;&gt;Tela Login&lt;/font&gt;" style="rounded=0;whiteSpace=wrap;html=1;shadow=0;hachureGap=4;strokeColor=#001DBC;fontFamily=Architects Daughter;fontSource=https%3A%2F%2Ffonts.googleapis.com%2Fcss%3Ffamily%3DArchitects%2BDaughter;fontSize=20;fillColor=#0050ef;fontColor=#ffffff;" vertex="1" parent="1">
                    <mxGeometry x="202" y="290" width="113" height="48" as="geometry"/>
                </mxCell>
                <mxCell id="16" style="edgeStyle=none;sketch=0;hachureGap=4;jiggle=2;curveFitting=1;html=1;exitX=1;exitY=0.5;exitDx=0;exitDy=0;strokeColor=#000000;strokeWidth=2;fontFamily=Times New Roman;fontSize=12;entryX=0;entryY=0.5;entryDx=0;entryDy=0;" edge="1" parent="1" source="14" target="18">
                    <mxGeometry relative="1" as="geometry">
                        <mxPoint x="585" y="318" as="targetPoint"/>
                    </mxGeometry>
                </mxCell>
                <mxCell id="20" style="edgeStyle=none;sketch=0;hachureGap=4;jiggle=2;curveFitting=1;html=1;exitX=0.5;exitY=1;exitDx=0;exitDy=0;strokeColor=#000000;strokeWidth=2;fontFamily=Times New Roman;fontSize=12;entryX=0.5;entryY=0;entryDx=0;entryDy=0;" edge="1" parent="1" source="14" target="21">
                    <mxGeometry relative="1" as="geometry">
                        <mxPoint x="431" y="441" as="targetPoint"/>
                    </mxGeometry>
                </mxCell>
                <mxCell id="14" value="&lt;font style=&quot;font-size: 12px;&quot;&gt;Usuario &lt;br&gt;e senha &lt;br&gt;correto?&lt;/font&gt;" style="rhombus;whiteSpace=wrap;html=1;shadow=0;sketch=0;hachureGap=4;jiggle=2;curveFitting=1;strokeColor=#B09500;fontFamily=Times New Roman;fontSize=20;fillColor=#e3c800;fontColor=#000000;" vertex="1" parent="1">
                    <mxGeometry x="374" y="260" width="113" height="108" as="geometry"/>
                </mxCell>
                <mxCell id="17" value="Menu do Usuario" style="rounded=0;whiteSpace=wrap;html=1;shadow=0;sketch=0;hachureGap=4;jiggle=2;curveFitting=1;fontFamily=Times New Roman;fontSize=12;fillColor=#0050ef;fontColor=#ffffff;strokeColor=#001DBC;" vertex="1" parent="1">
                    <mxGeometry x="705" y="284" width="120" height="60" as="geometry"/>
                </mxCell>
                <mxCell id="19" style="edgeStyle=none;sketch=0;hachureGap=4;jiggle=2;curveFitting=1;html=1;exitX=1;exitY=0.5;exitDx=0;exitDy=0;entryX=0;entryY=0.5;entryDx=0;entryDy=0;strokeColor=#000000;strokeWidth=2;fontFamily=Times New Roman;fontSize=12;" edge="1" parent="1" source="18" target="17">
                    <mxGeometry relative="1" as="geometry"/>
                </mxCell>
                <mxCell id="18" value="Sim" style="rounded=0;whiteSpace=wrap;html=1;shadow=0;sketch=0;hachureGap=4;jiggle=2;curveFitting=1;fontFamily=Times New Roman;fontSize=12;fillColor=#60a917;fontColor=#ffffff;strokeColor=#2D7600;" vertex="1" parent="1">
                    <mxGeometry x="575" y="301.25" width="52" height="25.5" as="geometry"/>
                </mxCell>
                <mxCell id="23" style="edgeStyle=none;sketch=0;hachureGap=4;jiggle=2;curveFitting=1;html=1;exitX=0.5;exitY=1;exitDx=0;exitDy=0;entryX=0.5;entryY=0;entryDx=0;entryDy=0;strokeColor=#000000;strokeWidth=2;fontFamily=Times New Roman;fontSize=12;" edge="1" parent="1" source="21" target="24">
                    <mxGeometry relative="1" as="geometry">
                        <mxPoint x="430.5" y="529" as="targetPoint"/>
                    </mxGeometry>
                </mxCell>
                <mxCell id="21" value="Não" style="rounded=0;whiteSpace=wrap;html=1;shadow=0;sketch=0;hachureGap=4;jiggle=2;curveFitting=1;fontFamily=Times New Roman;fontSize=12;fillColor=#e51400;fontColor=#ffffff;strokeColor=#B20000;" vertex="1" parent="1">
                    <mxGeometry x="404.5" y="444" width="52" height="25.5" as="geometry"/>
                </mxCell>
                <mxCell id="25" style="edgeStyle=none;sketch=0;hachureGap=4;jiggle=2;curveFitting=1;html=1;exitX=0;exitY=0.5;exitDx=0;exitDy=0;entryX=0.75;entryY=1;entryDx=0;entryDy=0;strokeColor=#000000;strokeWidth=2;fontFamily=Times New Roman;fontSize=12;" edge="1" parent="1" source="24" target="10">
                    <mxGeometry relative="1" as="geometry">
                        <Array as="points">
                            <mxPoint x="287" y="585"/>
                        </Array>
                    </mxGeometry>
                </mxCell>
                <mxCell id="24" value="&quot;Usuario ou Login e senha incorretos&quot;" style="rounded=0;whiteSpace=wrap;html=1;shadow=0;sketch=0;hachureGap=4;jiggle=2;curveFitting=1;fontFamily=Times New Roman;fontSize=12;fillColor=#d80073;fontColor=#ffffff;strokeColor=#A50040;" vertex="1" parent="1">
                    <mxGeometry x="370.5" y="555" width="120" height="60" as="geometry"/>
                </mxCell>
                <mxCell id="32" style="edgeStyle=none;sketch=0;hachureGap=4;jiggle=2;curveFitting=1;html=1;exitX=1;exitY=0.5;exitDx=0;exitDy=0;strokeColor=#000000;strokeWidth=2;fontFamily=Times New Roman;fontSize=12;entryX=0;entryY=0.5;entryDx=0;entryDy=0;" edge="1" parent="1" source="30" target="34">
                    <mxGeometry relative="1" as="geometry">
                        <mxPoint x="654" y="692" as="targetPoint"/>
                    </mxGeometry>
                </mxCell>
                <mxCell id="37" style="edgeStyle=none;sketch=0;hachureGap=4;jiggle=2;curveFitting=1;html=1;exitX=0.25;exitY=1;exitDx=0;exitDy=0;strokeColor=#000000;strokeWidth=2;fontFamily=Times New Roman;fontSize=12;entryX=0.25;entryY=0;entryDx=0;entryDy=0;" edge="1" parent="1" source="30" target="38">
                    <mxGeometry relative="1" as="geometry">
                        <mxPoint x="433.8571428571429" y="793.8571428571429" as="targetPoint"/>
                    </mxGeometry>
                </mxCell>
                <mxCell id="30" value="Criação de Login" style="rounded=0;whiteSpace=wrap;html=1;shadow=0;sketch=0;hachureGap=4;jiggle=2;curveFitting=1;fontFamily=Times New Roman;fontSize=12;fillColor=#0050ef;fontColor=#ffffff;strokeColor=#001DBC;" vertex="1" parent="1">
                    <mxGeometry x="374.5" y="668" width="120" height="60" as="geometry"/>
                </mxCell>
                <mxCell id="43" style="edgeStyle=none;sketch=0;hachureGap=4;jiggle=2;curveFitting=1;html=1;exitX=1;exitY=0.5;exitDx=0;exitDy=0;strokeColor=#000000;strokeWidth=2;fontFamily=Times New Roman;fontSize=12;entryX=0;entryY=0.5;entryDx=0;entryDy=0;" edge="1" parent="1" source="31" target="47">
                    <mxGeometry relative="1" as="geometry">
                        <mxPoint x="457" y="1023" as="targetPoint"/>
                    </mxGeometry>
                </mxCell>
                <mxCell id="52" style="edgeStyle=none;sketch=0;hachureGap=4;jiggle=2;curveFitting=1;html=1;exitX=0.75;exitY=1;exitDx=0;exitDy=0;entryX=0.75;entryY=0;entryDx=0;entryDy=0;strokeColor=#000000;strokeWidth=2;fontFamily=Times New Roman;fontSize=12;" edge="1" parent="1" source="31" target="49">
                    <mxGeometry relative="1" as="geometry"/>
                </mxCell>
                <mxCell id="31" value="Recuperação de senha" style="rounded=0;whiteSpace=wrap;html=1;shadow=0;sketch=0;hachureGap=4;jiggle=2;curveFitting=1;fontFamily=Times New Roman;fontSize=12;fillColor=#0050ef;fontColor=#ffffff;strokeColor=#001DBC;" vertex="1" parent="1">
                    <mxGeometry x="254" y="993" width="120" height="60" as="geometry"/>
                </mxCell>
                <mxCell id="35" style="edgeStyle=none;sketch=0;hachureGap=4;jiggle=2;curveFitting=1;html=1;exitX=1;exitY=0.5;exitDx=0;exitDy=0;strokeColor=#000000;strokeWidth=2;fontFamily=Times New Roman;fontSize=12;entryX=0;entryY=0.5;entryDx=0;entryDy=0;" edge="1" parent="1" source="34" target="36">
                    <mxGeometry relative="1" as="geometry">
                        <mxPoint x="712.4285714285716" y="698.1428571428573" as="targetPoint"/>
                    </mxGeometry>
                </mxCell>
                <mxCell id="34" value="Formulario&lt;br&gt;Preenchido &lt;br&gt;Sim?" style="rounded=0;whiteSpace=wrap;html=1;shadow=0;sketch=0;hachureGap=4;jiggle=2;curveFitting=1;fontFamily=Times New Roman;fontSize=12;fillColor=#60a917;fontColor=#ffffff;strokeColor=#2D7600;" vertex="1" parent="1">
                    <mxGeometry x="580" y="675.25" width="84" height="45.5" as="geometry"/>
                </mxCell>
                <mxCell id="40" style="edgeStyle=none;sketch=0;hachureGap=4;jiggle=2;curveFitting=1;html=1;exitX=0.5;exitY=1;exitDx=0;exitDy=0;entryX=0.25;entryY=1;entryDx=0;entryDy=0;strokeColor=#000000;strokeWidth=2;fontFamily=Times New Roman;fontSize=12;" edge="1" parent="1" source="36" target="10">
                    <mxGeometry relative="1" as="geometry">
                        <Array as="points">
                            <mxPoint x="795" y="922"/>
                            <mxPoint x="230" y="922"/>
                        </Array>
                    </mxGeometry>
                </mxCell>
                <mxCell id="36" value="cadastro realizado com Sucesso, estamos direcionado você para area de login" style="rounded=0;whiteSpace=wrap;html=1;shadow=0;sketch=0;hachureGap=4;jiggle=2;curveFitting=1;fontFamily=Times New Roman;fontSize=12;fillColor=#d80073;fontColor=#ffffff;strokeColor=#A50040;" vertex="1" parent="1">
                    <mxGeometry x="735" y="668" width="120" height="70" as="geometry"/>
                </mxCell>
                <mxCell id="39" style="edgeStyle=none;sketch=0;hachureGap=4;jiggle=2;curveFitting=1;html=1;strokeColor=#000000;strokeWidth=2;fontFamily=Times New Roman;fontSize=12;exitX=0.5;exitY=0;exitDx=0;exitDy=0;entryX=0.75;entryY=1;entryDx=0;entryDy=0;" edge="1" parent="1" source="38" target="30">
                    <mxGeometry relative="1" as="geometry">
                        <mxPoint x="440" y="815" as="sourcePoint"/>
                        <mxPoint x="488" y="755" as="targetPoint"/>
                    </mxGeometry>
                </mxCell>
                <mxCell id="38" value="Formulario&lt;br&gt;Preenchido &lt;br&gt;Não?" style="rounded=0;whiteSpace=wrap;html=1;shadow=0;sketch=0;hachureGap=4;jiggle=2;curveFitting=1;fontFamily=Times New Roman;fontSize=12;fillColor=#e51400;fontColor=#ffffff;strokeColor=#B20000;" vertex="1" parent="1">
                    <mxGeometry x="392.5" y="821" width="84" height="45.5" as="geometry"/>
                </mxCell>
                <mxCell id="46" value="E-mail enviado com recuperação de senha" style="rounded=0;whiteSpace=wrap;html=1;shadow=0;sketch=0;hachureGap=4;jiggle=2;curveFitting=1;fontFamily=Times New Roman;fontSize=12;fillColor=#d80073;fontColor=#ffffff;strokeColor=#A50040;" vertex="1" parent="1">
                    <mxGeometry x="615" y="993" width="120" height="60" as="geometry"/>
                </mxCell>
                <mxCell id="48" style="edgeStyle=none;sketch=0;hachureGap=4;jiggle=2;curveFitting=1;html=1;exitX=1;exitY=0.5;exitDx=0;exitDy=0;entryX=0;entryY=0.5;entryDx=0;entryDy=0;strokeColor=#000000;strokeWidth=2;fontFamily=Times New Roman;fontSize=12;" edge="1" parent="1" source="47" target="46">
                    <mxGeometry relative="1" as="geometry"/>
                </mxCell>
                <mxCell id="47" value="E-mail Valido&lt;br&gt;SIm" style="rounded=0;whiteSpace=wrap;html=1;shadow=0;sketch=0;hachureGap=4;jiggle=2;curveFitting=1;fontFamily=Times New Roman;fontSize=12;fillColor=#60a917;fontColor=#ffffff;strokeColor=#2D7600;" vertex="1" parent="1">
                    <mxGeometry x="459" y="1000.25" width="84" height="45.5" as="geometry"/>
                </mxCell>
                <mxCell id="51" style="edgeStyle=none;sketch=0;hachureGap=4;jiggle=2;curveFitting=1;html=1;exitX=0.25;exitY=0;exitDx=0;exitDy=0;entryX=0.25;entryY=1;entryDx=0;entryDy=0;strokeColor=#000000;strokeWidth=2;fontFamily=Times New Roman;fontSize=12;" edge="1" parent="1" source="49" target="31">
                    <mxGeometry relative="1" as="geometry"/>
                </mxCell>
                <mxCell id="49" value="E-mail Valido Não" style="rounded=0;whiteSpace=wrap;html=1;shadow=0;sketch=0;hachureGap=4;jiggle=2;curveFitting=1;fontFamily=Times New Roman;fontSize=12;fillColor=#e51400;fontColor=#ffffff;strokeColor=#B20000;" vertex="1" parent="1">
                    <mxGeometry x="275" y="1111" width="84" height="45.5" as="geometry"/>
                </mxCell>
            </root>
        </mxGraphModel>
    </diagram>
</mxfile>